<svg xmlns="http://www.w3.org/2000/svg" viewBox="0 0 38.81 17.892"><defs><style>.cls-1{fill:#dcf0ff}.cls-10,.cls-11,.cls-16,.cls-2,.cls-25,.cls-28,.cls-29,.cls-7,.cls-8{fill:none}.cls-10,.cls-11,.cls-16,.cls-2,.cls-25,.cls-7{stroke:#000201}.cls-10,.cls-11,.cls-16,.cls-2,.cls-25,.cls-29,.cls-7,.cls-8{stroke-linecap:round;stroke-linejoin:round}.cls-2{stroke-width:.14497px}.cls-3{fill:#ffc68d}.cls-4{fill:#f7a65c}.cls-5{fill:#ffdcbd}.cls-6{fill:#e28c37}.cls-7{stroke-width:.22488px}.cls-29,.cls-8{stroke:#fff}.cls-8{stroke-width:.13158px}.cls-26,.cls-27,.cls-30,.cls-9{fill:#fff}.cls-10{stroke-width:.145px}.cls-11{stroke-width:.245px}.cls-12{fill:#ff4500}.cls-13{fill:#bc2800}.cls-14{fill:#f4ad5e}.cls-15{fill:#000201}.cls-16{stroke-width:.21075px}.cls-17{fill:#536b77}.cls-18{fill:#263f47}.cls-19{fill:#8bd2fc}.cls-20{fill:#cfabf4}.cls-21{fill:#e0e3e8}.cls-22{fill:#abbcd3}.cls-23{fill:#b6c1d1}.cls-24{fill:#d83300}.cls-25{stroke-width:.165px}.cls-26{opacity:.6}.cls-27{opacity:.8}.cls-28{stroke:#ffdcc0;stroke-miterlimit:10;stroke-width:.15px}.cls-29{stroke-width:.25px}.cls-30{font-size:1.98012px;font-family:Jost-Medium,Jost;font-weight:500}</style></defs><g id="Layer_2" data-name="Layer 2"><g id="Layer_1-2" data-name="Layer 1"><g><path d="M35.00994,13.74115l-.68435,1.22052-3.09-2.02L33.50406,9.4588C34.51583,10.32939,33.97465,12.56468,35.00994,13.74115Z" class="cls-1"/><path d="M34.08821,15.5842l-3.18269-2.07785L33.95,8.84315a.97215.97215,0,0,1,1.34547-.28258l3.06731,2.00254" class="cls-2"/><g><path d="M37.76787,10.33253h0a.86655.86655,0,0,1,.86655.86655V12.3645a0,0,0,0,1,0,0h-1.7331a0,0,0,0,1,0,0V11.19908a.86655.86655,0,0,1,.86655-.86655Z" class="cls-1" transform="translate(12.34697 -18.80076) rotate(33.13898)"/><path d="M36.67873,11.88028l1.24774.8146.68486-1.049a.77621.77621,0,0,0-.22562-1.07429" class="cls-2"/></g><path d="M33.99878,15.52582l3.04442-4.6632A.97215.97215,0,0,1,38.38867,10.58" class="cls-2"/><g><line x1="33.827" x2="34.77" y1="10.485" y2="11.101" class="cls-2"/><line x1="34.053" x2="35.757" y1="10.138" y2="11.25" class="cls-2"/><line x1="34.507" x2="36.21" y1="9.444" y2="10.556" class="cls-2"/><line x1="34.28" x2="34.922" y1="9.791" y2="10.21" class="cls-2"/><line x1="35.171" x2="35.813" y1="10.373" y2="10.792" class="cls-2"/></g><g><polyline points="28.258 9.471 33.398 9.471 34.672 17.659 25.21 17.659" class="cls-3"/><path d="M28.2578,9.47057l.17411.49173a14.81482,14.81482,0,0,0,6.24,7.69649H25.21" class="cls-4"/><polyline points="28.258 9.471 33.398 9.471 33.444 10.016 26.734 10.016" class="cls-5"/><circle cx="31.277" cy="10.605" r=".341" class="cls-6"/><path d="M31.30564,11.00586v.69941a1.04059,1.04059,0,0,1-1.04059,1.04059h0a1.04058,1.04058,0,0,1-1.04058-1.04059V10.6988" class="cls-2"/><polyline points="28.258 9.471 33.398 9.471 34.672 17.659 25.21 17.659" class="cls-7"/><g><line x1="30.15" x2="29.675" y1="9.999" y2="9.999" class="cls-8"/><circle cx="30.406" cy="9.999" r=".085" class="cls-9"/></g><circle cx="31.286" cy="10.605" r=".341" class="cls-10"/></g><path d="M4.34024,11.29047a1.495,1.495,0,1,0,1.49,1.5A1.48951,1.48951,0,0,0,4.34024,11.29047Zm0,2.33a.83652.83652,0,0,1-.84-.83.84.84,0,0,1,1.68006,0A.83663.83663,0,0,1,4.34024,13.62049Z" class="cls-1"/><g><circle cx="4.363" cy="12.765" r="1.494" class="cls-11"/><circle cx="4.363" cy="12.765" r=".837" class="cls-2"/></g><g><circle cx="4.363" cy="12.765" r="1.494" class="cls-11"/><circle cx="4.363" cy="12.765" r=".837" class="cls-2"/></g><path d="M4.4453,10.21174h6.02352a0,0,0,0,1,0,0v5.50587a0,0,0,0,1,0,0H6.35412A1.90882,1.90882,0,0,1,4.4453,13.8088V10.21174A0,0,0,0,1,4.4453,10.21174Z" class="cls-9"/><path d="M4.81,10.21174h6.02352a0,0,0,0,1,0,0v5.50587a0,0,0,0,1,0,0H6.71882A1.90882,1.90882,0,0,1,4.81,13.8088V10.21174A0,0,0,0,1,4.81,10.21174Z" class="cls-12"/><path d="M10.83352,15.71762l-4.0294-.01177A1.46853,1.46853,0,0,1,5.4453,13.88233H7.69235l.02353-3.57647,1.17647-.14117Z" class="cls-13"/><path d="M6.73941,10.21174h3.72941v5.50588H6.35412A1.90882,1.90882,0,0,1,4.4453,13.8088V10.21174H5.76294" class="cls-11"/><rect width="30.329" height="2.118" x="3.116" y="15.623" class="cls-14"/><rect width="30.329" height=".508" x="3.116" y="15.623" class="cls-3"/><rect width="30.329" height=".508" x="3.116" y="17.212" class="cls-6"/><g><circle cx=".153" cy="17.74" r=".153" class="cls-15"/><line x1="2.563" x2=".714" y1="17.741" y2="17.741" class="cls-16"/></g><g><circle cx="36.368" cy="17.665" r=".153" class="cls-15"/><line x1="33.958" x2="35.806" y1="17.667" y2="17.667" class="cls-16"/></g><line x1="8.793" x2="8.793" y1="8.56" y2=".663" class="cls-7"/><rect width="21.255" height="14.251" x="8.01" y=".094" class="cls-17" rx=".538"/><path d="M29.26644,13.43527v.58427c0,.17874-.23831.33-.54478.33H8.55249c-.30647,0-.54478-.15125-.54478-.33v-.58427c0,.18557.23831.32994.54478.32994H28.72166C29.02813,13.76521,29.26644,13.62084,29.26644,13.43527Z" class="cls-18"/><path d="M13.3628.12445H28.77171a.53809.53809,0,0,1,.53809.53809V13.83723a.53809.53809,0,0,1-.53809.53809H8.59338a.53809.53809,0,0,1-.53809-.53809V11.7779" class="cls-7"/><path d="M8.05529,8.55984V.66254A.53809.53809,0,0,1,8.59338.12445h1.64743" class="cls-7"/><line x1="8.055" x2="8.055" y1="10.736" y2="9.495" class="cls-7"/><rect width="19.184" height="12.302" x="9.165" y="1.2" class="cls-1"/><rect width="19.184" height=".371" x="9.165" y="1.2" class="cls-19"/><rect width="19.068" height=".077" x="9.24" y="13.33" class="cls-20"/><line x1="9.152" x2="9.152" y1="7.026" y2="5.146" class="cls-7"/><line x1="10.96" x2="12.601" y1=".112" y2=".112" class="cls-7"/><g><path d="M8.42981,1.41789a.06078.06078,0,0,1-.02444-.00031.0615.0615,0,0,1-.04874-.07205l.00059-.0027L8.53679.49347A.06206.06206,0,0,1,8.65824.5191l-.18.849A.06152.06152,0,0,1,8.42981,1.41789Z" class="cls-15"/><path d="M8.79788.95274a.06065.06065,0,0,1-.02445-.0003.06151.06151,0,0,1-.04873-.072L8.72528.87768,8.82123.423a.06206.06206,0,1,1,.12145.02563L8.84625.903A.06151.06151,0,0,1,8.79788.95274Z" class="cls-15"/></g><g><path d="M9.84158,12.53551a.06065.06065,0,0,1-.02445-.0003.0615.0615,0,0,1-.04873-.072l.00058-.00271.17957-.84935a.06206.06206,0,0,1,.12145.02563l-.18.849A.06152.06152,0,0,1,9.84158,12.53551Z" class="cls-15"/><path d="M10.20964,12.07037a.06083.06083,0,0,1-.02445-.00031.0615.0615,0,0,1-.04873-.072l.00058-.0027.09595-.45468a.06207.06207,0,0,1,.12146.02563l-.09644.45435A.06151.06151,0,0,1,10.20964,12.07037Z" class="cls-15"/></g><g><line x1="12.837" x2="13.439" y1=".573" y2=".573" class="cls-2"/><line x1="11.349" x2="12.517" y1=".573" y2=".573" class="cls-2"/></g><g><line x1="26.637" x2="27.24" y1=".702" y2=".702" class="cls-2"/><line x1="25.149" x2="26.318" y1=".702" y2=".702" class="cls-2"/></g><g><path d="M5.7973,14.23582H31.20336a0,0,0,0,1,0,0v0A1.41121,1.41121,0,0,1,29.79215,15.647H7.2085A1.41121,1.41121,0,0,1,5.7973,14.23582v0a0,0,0,0,1,0,0Z" class="cls-21"/><path d="M30.9098,14.94115a1.00237,1.00237,0,0,1-1.07258.70756H7.25714a1.20028,1.20028,0,0,1-1.24141-.684Z" class="cls-22"/><path d="M5.75691,14.17846H31.163a0,0,0,0,1,0,0v0a1.41121,1.41121,0,0,1-1.41121,1.41121H7.16811a1.41121,1.41121,0,0,1-1.41121-1.41121v0A0,0,0,0,1,5.75691,14.17846Z" class="cls-11"/></g><line x1="17.004" x2="19.333" y1="14.941" y2="14.941" class="cls-2"/><line x1="4.792" x2="7.122" y1="16.171" y2="16.171" class="cls-2"/><g><circle cx="18.411" cy="9.765" r="1.529" class="cls-19"/><circle cx="18.411" cy="9.765" r=".816" class="cls-19"/></g><g><circle cx="18.411" cy="9.953" r="1.529" class="cls-19"/><circle cx="18.411" cy="9.953" r=".816" class="cls-19"/></g><g><circle cx="18.411" cy="9.365" r="1.529" class="cls-21"/><circle cx="18.411" cy="9.365" r=".816" class="cls-21"/></g><circle cx="18.411" cy="9.365" r="1.529" class="cls-7"/><circle cx="18.411" cy="9.6" r=".689" class="cls-23"/><g><path d="M14.91309,8.26092a3.81274,3.81274,0,0,0-.39966,1.70786H12.69656A5.58422,5.58422,0,0,1,13.169,7.6977Z" class="cls-12"/><path d="M16.27574,6.71663a3.86245,3.86245,0,0,0-1.36265,1.54429L13.169,7.6977A5.64858,5.64858,0,0,1,15.18566,5.245Z" class="cls-12"/><path d="M18.41951,4.24572V6.06258a3.78354,3.78354,0,0,0-2.14377.65405L15.18566,5.245A5.63525,5.63525,0,0,1,18.41951,4.24572Z" class="cls-12"/><path d="M21.6354,5.245,20.54555,6.71663a3.72637,3.72637,0,0,0-2.126-.65405V4.24572A5.61992,5.61992,0,0,1,21.6354,5.245Z" class="cls-12"/><path d="M23.65232,7.6977l-1.74412.56322a3.86919,3.86919,0,0,0-1.36265-1.54429L21.6354,5.245A5.6491,5.6491,0,0,1,23.65232,7.6977Z" class="cls-12"/><path d="M24.12472,9.96878H22.30786a3.81579,3.81579,0,0,0-.39966-1.70786l1.74412-.56322A5.588,5.588,0,0,1,24.12472,9.96878Z" class="cls-12"/></g><path d="M24.05853,10.04105h-.02991a5.46856,5.46856,0,0,0-.45007-1.71c-.06995-.17-.15-.33-.23-.49005a5.75382,5.75382,0,0,0-1.78-1.96c-.09-.06-.18006-.13-.27991-.19a5.759,5.759,0,0,0-5.89014,0c-.1.06-.18994.13-.28.19a5.6943,5.6943,0,0,0-1.77991,1.97,5.36287,5.36287,0,0,0-.24.48,5.19454,5.19454,0,0,0-.44007,1.71h-.03a5.55782,5.55782,0,0,1,.47009-2.27,5.70222,5.70222,0,0,1,2.0199-2.46,5.68874,5.68874,0,0,1,8.46008,2.46A5.56458,5.56458,0,0,1,24.05853,10.04105Z" class="cls-24"/><g><path d="M14.91309,8.26092a3.81274,3.81274,0,0,0-.39966,1.70786H12.69656A5.58422,5.58422,0,0,1,13.169,7.6977Z" class="cls-7"/><path d="M16.27574,6.71663a3.86245,3.86245,0,0,0-1.36265,1.54429L13.169,7.6977A5.64858,5.64858,0,0,1,15.18566,5.245Z" class="cls-7"/><path d="M18.41951,4.24572V6.06258a3.78354,3.78354,0,0,0-2.14377.65405L15.18566,5.245A5.63525,5.63525,0,0,1,18.41951,4.24572Z" class="cls-7"/><path d="M21.6354,5.245,20.54555,6.71663a3.72637,3.72637,0,0,0-2.126-.65405V4.24572A5.61992,5.61992,0,0,1,21.6354,5.245Z" class="cls-7"/><path d="M23.65232,7.6977l-1.74412.56322a3.86919,3.86919,0,0,0-1.36265-1.54429L21.6354,5.245A5.6491,5.6491,0,0,1,23.65232,7.6977Z" class="cls-7"/><path d="M24.12472,9.96878H22.30786a3.81579,3.81579,0,0,0-.39966-1.70786l1.74412-.56322A5.588,5.588,0,0,1,24.12472,9.96878Z" class="cls-7"/></g><g><polygon points="19.193 5.492 19.036 7.547 18.88 9.602 18.317 9.479 17.754 9.355 18.473 7.423 19.193 5.492" class="cls-12"/><polygon points="19.195 5.495 19.038 7.55 18.882 9.605 18.319 9.482 17.756 9.358 18.475 7.426 19.195 5.495" class="cls-25"/></g><circle cx="18.411" cy="9.365" r=".689" class="cls-9"/><circle cx="18.411" cy="9.365" r=".689" class="cls-2"/><g><line x1="12.819" x2="13.384" y1="9.129" y2="9.165" class="cls-2"/><line x1="12.981" x2="13.486" y1="8.391" y2="8.544" class="cls-2"/></g><g><line x1="13.925" x2="14.345" y1="6.55" y2="6.93" class="cls-2"/><line x1="14.428" x2="14.745" y1="6.018" y2="6.371" class="cls-2"/></g><g><line x1="20.445" x2="20.263" y1="4.717" y2="5.253" class="cls-2"/><line x1="19.747" x2="19.641" y1="4.496" y2="4.959" class="cls-2"/></g><g><line x1="22.965" x2="22.545" y1="6.55" y2="6.93" class="cls-2"/><line x1="22.463" x2="22.145" y1="6.018" y2="6.371" class="cls-2"/></g><g><line x1="24.004" x2="23.439" y1="9.129" y2="9.165" class="cls-2"/><line x1="23.842" x2="23.336" y1="8.391" y2="8.544" class="cls-2"/></g><g><polygon points="21.575 13.365 21.104 13.365 24.104 1.082 24.575 1.082 21.575 13.365" class="cls-26"/><polygon points="23.657 13.365 22.186 13.365 25.186 1.082 26.657 1.082 23.657 13.365" class="cls-27"/></g><polygon points="19.669 13.365 19.198 13.365 22.198 1.082 22.669 1.082 19.669 13.365" class="cls-26"/><polyline points="9.152 4.421 9.152 1.099 28.335 1.099 28.335 13.401 9.152 13.401 9.152 7.887" class="cls-7"/><g><line x1="16.458" x2="16.64" y1="4.702" y2="5.238" class="cls-2"/><line x1="17.156" x2="17.262" y1="4.481" y2="4.944" class="cls-2"/></g><circle cx="10.139" cy="2.753" r=".388" class="cls-9"/><circle cx="10.804" cy="3.418" r=".261" class="cls-9"/><circle cx="10.109" cy="3.435" r=".158" class="cls-9"/><path d="M3.13942,16.41173a39.60433,39.60433,0,0,0,7.6.45882c3.6-.21176,5.99982-.6,9.63528-.6,4.27058,0,7.35293.6,13.03527.67058" class="cls-28"/><path d="M33.33936,16.41765c-5.68234.07059-8.76469.67059-13.03527.67059A35.24093,35.24093,0,0,1,15.633,16.72a48.10339,48.10339,0,0,0-12.47.15057h0" class="cls-28"/><polyline points="4.622 15.623 33.445 15.623 33.445 17.741 3.116 17.741 3.116 15.623 3.61 15.623" class="cls-7"/><circle cx="7.616" cy="16.171" r=".153" class="cls-15"/><circle cx="4.094" cy="15.631" r=".153" class="cls-15"/><circle cx="6.269" cy="10.235" r=".153" class="cls-15"/><g><line x1="7.663" x2="8.598" y1="14.906" y2="14.906" class="cls-29"/><circle cx="7.16" cy="14.906" r=".168" class="cls-9"/></g><g><path d="M32.82367,7.46589,30.49374,8.69294a.12787.12787,0,0,1-.17272-.05355L28.51459,5.20931a.34073.34073,0,0,1-.0226-.264l.56233-1.73164,1.80558.48365a.34071.34071,0,0,1,.2133.17034l1.804,3.42551A.12785.12785,0,0,1,32.82367,7.46589Z" class="cls-12"/><circle cx="29.847" cy="4.64" r=".425" class="cls-12"/></g><path d="M29.01285,3.41577l-.06128,1.70314a.36273.36273,0,0,0,.09985.264l2.63,2.75677-.25784.1354L28.75084,5.45539a.3633.3633,0,0,1-.09986-.264l.14079-1.09484Z" class="cls-24"/><g><path d="M32.82367,7.46589,30.49374,8.69294a.12787.12787,0,0,1-.17272-.05355L28.51459,5.20931a.34073.34073,0,0,1-.0226-.264l.56233-1.73164,1.80558.48365a.34071.34071,0,0,1,.2133.17034l1.804,3.42551A.12785.12785,0,0,1,32.82367,7.46589Z" class="cls-7"/><circle cx="29.847" cy="4.64" r=".425" class="cls-7"/></g><g><path d="M34.06876,6.34836,32.06229,8.26255a.13464.13464,0,0,1-.19037-.00448l-2.818-2.95388a.35876.35876,0,0,1-.09894-.26088l.07066-1.916L30.99384,3.097a.35881.35881,0,0,1,.26513.11109L34.07324,6.158A.13464.13464,0,0,1,34.06876,6.34836Z" class="cls-12"/><circle cx="30.239" cy="4.343" r=".447" class="cls-12"/></g><path d="M34.14435,6.36166l-2.01,1.92a.13054.13054,0,0,1-.18994-.01l-1.6-1.68a2.99949,2.99949,0,0,0,2.34-1.96l1.47,1.54A.13889.13889,0,0,1,34.14435,6.36166Z" class="cls-24"/><path d="M32.36972,4.37235,34.07324,6.158a.13464.13464,0,0,1-.00448.19037L32.06229,8.26255a.13464.13464,0,0,1-.19037-.00448l-2.818-2.95388a.35876.35876,0,0,1-.09894-.26088l.07066-1.916L30.99384,3.097a.35881.35881,0,0,1,.26513.11109l.45686.46253" class="cls-7"/><circle cx="30.223" cy="4.326" r=".447" class="cls-9"/><circle cx="30.239" cy="4.343" r=".447" class="cls-2"/><path d="M29.98482,4.65912l.22644-.18344a1.07415,1.07415,0,0,0-.07189-1.72274h0a1.07415,1.07415,0,0,0-.83657-.16065" class="cls-2"/><text class="cls-30" transform="matrix(0.72355, -0.69027, 0.69027, 0.72355, 31.65926, 7.13487)">%</text><circle cx="32.01" cy="4.024" r=".153" class="cls-15"/><circle cx="18.681" cy=".608" r=".162" class="cls-2"/></g></g></g></svg>